<?xml version="1.0" standalone="no"?>
<!DOCTYPE svg PUBLIC "-//W3C//DTD SVG 20010904//EN"
 "http://www.w3.org/TR/2001/REC-SVG-20010904/DTD/svg10.dtd">
<svg version="1.0" xmlns="http://www.w3.org/2000/svg"
 width="256.000000pt" height="256.000000pt" viewBox="0 0 256.000000 256.000000"
 preserveAspectRatio="xMidYMid meet">

<g transform="translate(0.000000,256.000000) scale(0.100000,-0.100000)"
fill="#000000" stroke="none">
<path d="M1912 2494 c-159 -80 -175 -299 -31 -404 99 -71 227 -55 311 38 45
50 61 99 56 172 -12 167 -189 269 -336 194z m188 -77 c132 -88 73 -287 -84
-287 -173 0 -216 229 -56 302 34 15 107 8 140 -15z"/>
<path d="M894 2448 c-82 -17 -144 -115 -125 -199 30 -133 188 -179 285 -82
118 119 6 315 -160 281z m102 -102 c19 -19 34 -44 34 -56 0 -47 -51 -100 -95
-100 -46 0 -95 51 -95 101 0 31 62 89 95 89 17 0 39 -12 61 -34z"/>
<path d="M1429 2149 c-55 -16 -130 -78 -158 -133 -15 -29 -27 -71 -29 -107
l-4 -58 -289 -3 -289 -3 -32 -33 -33 -32 -4 -120 c-2 -66 0 -132 3 -146 4 -15
40 -61 81 -104 45 -47 73 -84 70 -93 -3 -7 -26 -23 -51 -35 l-45 -22 -37 25
c-20 14 -46 25 -58 25 -20 0 -154 -127 -154 -147 0 -4 13 -28 29 -52 l29 -43
-18 -42 c-21 -46 -27 -50 -85 -63 l-40 -8 -3 -104 c-2 -65 1 -108 8 -117 7 -7
31 -16 54 -19 40 -6 44 -10 63 -54 18 -42 18 -50 6 -67 -8 -10 -21 -32 -29
-47 -15 -28 -14 -29 57 -103 40 -40 78 -74 86 -74 7 0 32 12 54 26 l41 25 44
-18 c37 -15 45 -23 50 -53 13 -74 23 -80 133 -80 111 0 118 3 129 70 6 37 11
43 54 62 l46 20 38 -26 c21 -14 44 -26 51 -26 10 0 13 -36 13 -153 0 -156 5
-177 40 -177 8 0 99 65 201 144 l186 144 7 173 c3 96 13 202 21 237 17 72 63
167 112 232 29 38 215 242 430 471 l53 56 0 132 c0 216 -6 221 -288 221 l-189
0 -6 58 c-8 98 -63 179 -150 224 -47 24 -144 32 -198 17z m188 -105 c47 -37
83 -106 83 -156 l0 -38 -192 2 -193 3 -3 29 c-5 39 23 107 56 139 48 46 82 58
149 55 51 -3 69 -9 100 -34z m537 -280 c13 -5 16 -25 16 -110 l0 -104 -750 0
-750 0 0 103 c0 57 3 107 7 110 8 9 1456 9 1477 1z m-71 -336 c-171 -179 -362
-394 -400 -452 -84 -125 -112 -231 -122 -459 l-6 -151 -133 -104 c-73 -57
-135 -103 -137 -101 -2 2 -5 66 -6 142 l-3 137 39 41 40 40 -28 50 c-28 50
-28 51 -11 95 14 38 21 44 53 50 74 13 81 23 81 127 0 59 -5 99 -12 109 -7 9
-33 20 -57 25 -41 8 -46 12 -64 55 l-19 46 27 40 c17 26 25 48 21 60 -4 11
-36 47 -71 81 -71 68 -78 70 -143 26 -33 -23 -35 -23 -73 -6 -50 23 -48 20
-62 77 l-12 49 -106 3 c-103 3 -107 4 -134 32 l-29 30 704 0 704 0 -41 -42z
m-1148 -134 c6 -41 10 -47 43 -60 20 -8 58 -24 84 -36 l47 -21 39 26 39 26 37
-38 36 -37 -26 -38 -26 -38 25 -56 c14 -32 28 -67 32 -80 7 -25 41 -42 81 -42
22 0 24 -3 24 -55 l0 -55 -35 0 c-35 0 -75 -28 -75 -51 0 -6 -12 -38 -26 -69
l-26 -58 26 -38 26 -38 -37 -38 -36 -37 -36 25 c-19 13 -41 24 -48 24 -10 0
-66 -23 -143 -60 -8 -4 -19 -28 -24 -54 l-10 -47 -50 3 c-50 3 -50 3 -58 42
-9 44 -24 66 -44 66 -8 0 -37 11 -66 25 -64 31 -65 31 -108 1 l-35 -24 -37 35
-37 36 25 43 25 43 -19 38 c-11 21 -25 55 -32 76 -12 40 -39 57 -86 57 -22 0
-24 3 -24 55 0 53 1 55 28 55 47 0 72 22 99 85 37 91 37 92 10 134 l-26 38 38
37 37 36 36 -25 c20 -14 41 -25 45 -25 4 0 30 11 57 25 27 14 57 25 67 25 23
0 49 37 49 71 0 35 6 39 61 39 l47 0 7 -46z"/>
<path d="M774 1114 c-58 -21 -120 -77 -152 -138 -22 -43 -27 -64 -27 -131 0
-70 4 -87 30 -133 49 -90 128 -141 231 -150 112 -9 212 45 272 146 24 42 27
57 27 137 0 68 -5 98 -19 125 -26 49 -84 108 -131 133 -52 27 -173 33 -231 11z
m219 -100 c59 -42 90 -102 90 -174 0 -175 -208 -272 -339 -158 -122 107 -89
301 61 356 17 7 56 10 88 9 44 -3 67 -10 100 -33z"/>
</g>
</svg>
